<?xml version="1.0" encoding="UTF-8"?>
<svg width="20px" height="20px" viewBox="0 0 20 20" version="1.1" xmlns="http://www.w3.org/2000/svg">
    <title>Facebook Icon</title>
    <g stroke="none" stroke-width="1" fill="#45A180" fill-rule="evenodd">
        <path d="M18.896,0 L1.104,0 C0.494,0 0,0.494 0,1.104 L0,18.896 C0,19.506 0.494,20 1.104,20 L10.676,20 L10.676,12.255 L8.076,12.255 L8.076,9.237 L10.676,9.237 L10.676,7.01 C10.676,4.427 12.26,3.02 14.565,3.02 C15.669,3.02 16.617,3.102 16.894,3.139 L16.894,5.839 L15.296,5.84 C14.042,5.84 13.8,6.436 13.8,7.309 L13.8,9.237 L16.789,9.237 L16.394,12.255 L13.8,12.255 L13.8,20 L18.896,20 C19.506,20 20,19.506 20,18.896 L20,1.104 C20,0.494 19.506,0 18.896,0"></path>
    </g>
</svg>
