<?xml version="1.0" encoding="UTF-8"?>
<svg width="20px" height="20px" viewBox="0 0 20 20" version="1.1" xmlns="http://www.w3.org/2000/svg">
    <title>Instagram Icon</title>
    <g stroke="none" stroke-width="1" fill="#4CAF50" fill-rule="evenodd">
        <path d="M10,1.8 C12.67,1.8 12.987,1.812 14.041,1.86 C15.017,1.906 15.544,2.067 15.895,2.204 C16.365,2.387 16.698,2.602 17.047,2.952 C17.398,3.302 17.613,3.635 17.796,4.105 C17.933,4.456 18.094,4.983 18.14,5.959 C18.188,7.013 18.2,7.33 18.2,10 C18.2,12.67 18.188,12.987 18.14,14.041 C18.094,15.017 17.933,15.544 17.796,15.895 C17.613,16.365 17.398,16.698 17.047,17.047 C16.698,17.398 16.365,17.613 15.895,17.796 C15.544,17.933 15.017,18.094 14.041,18.14 C12.987,18.188 12.67,18.2 10,18.2 C7.33,18.2 7.013,18.188 5.959,18.14 C4.983,18.094 4.456,17.933 4.105,17.796 C3.635,17.613 3.302,17.398 2.952,17.047 C2.602,16.698 2.387,16.365 2.204,15.895 C2.067,15.544 1.906,15.017 1.86,14.041 C1.812,12.987 1.8,12.67 1.8,10 C1.8,7.33 1.812,7.013 1.86,5.959 C1.906,4.983 2.067,4.456 2.204,4.105 C2.387,3.635 2.602,3.302 2.952,2.952 C3.302,2.602 3.635,2.387 4.105,2.204 C4.456,2.067 4.983,1.906 5.959,1.86 C7.013,1.812 7.33,1.8 10,1.8 M10,0 C7.284,0 6.944,0.012 5.877,0.06 C4.813,0.108 4.086,0.278 3.45,0.525 C2.793,0.779 2.235,1.123 1.678,1.678 C1.123,2.235 0.779,2.793 0.525,3.45 C0.278,4.086 0.108,4.813 0.06,5.877 C0.012,6.944 0,7.284 0,10 C0,12.716 0.012,13.056 0.06,14.123 C0.108,15.187 0.278,15.914 0.525,16.55 C0.779,17.207 1.123,17.765 1.678,18.322 C2.235,18.877 2.793,19.221 3.45,19.475 C4.086,19.722 4.813,19.892 5.877,19.94 C6.944,19.988 7.284,20 10,20 C12.716,20 13.056,19.988 14.123,19.94 C15.187,19.892 15.914,19.722 16.55,19.475 C17.207,19.221 17.765,18.877 18.322,18.322 C18.877,17.765 19.221,17.207 19.475,16.55 C19.722,15.914 19.892,15.187 19.94,14.123 C19.988,13.056 20,12.716 20,10 C20,7.284 19.988,6.944 19.94,5.877 C19.892,4.813 19.722,4.086 19.475,3.45 C19.221,2.793 18.877,2.235 18.322,1.678 C17.765,1.123 17.207,0.779 16.55,0.525 C15.914,0.278 15.187,0.108 14.123,0.06 C13.056,0.012 12.716,0 10,0"></path>
        <path d="M10,4.865 C7.165,4.865 4.865,7.165 4.865,10 C4.865,12.835 7.165,15.135 10,15.135 C12.835,15.135 15.135,12.835 15.135,10 C15.135,7.165 12.835,4.865 10,4.865 M10,13.333 C8.159,13.333 6.667,11.841 6.667,10 C6.667,8.159 8.159,6.667 10,6.667 C11.841,6.667 13.333,8.159 13.333,10 C13.333,11.841 11.841,13.333 10,13.333"></path>
        <path d="M15.338,4.662 C15.338,5.325 14.801,5.862 14.138,5.862 C13.475,5.862 12.938,5.325 12.938,4.662 C12.938,3.999 13.475,3.462 14.138,3.462 C14.801,3.462 15.338,3.999 15.338,4.662"></path>
    </g>
</svg>
