<?xml version="1.0" encoding="UTF-8"?>
<svg width="20px" height="20px" viewBox="0 0 20 20" version="1.1" xmlns="http://www.w3.org/2000/svg">
    <title>Twitter Icon</title>
    <g stroke="none" stroke-width="1" fill="#4CAF50" fill-rule="evenodd">
        <path d="M18,4.538 C17.405,4.8 16.771,4.973 16.11,5.046 C16.79,4.637 17.309,3.989 17.553,3.226 C16.919,3.6 16.219,3.889 15.473,4.038 C14.871,3.397 14.013,3 13.077,3 C11.261,3 9.799,4.471 9.799,6.281 C9.799,6.541 9.821,6.791 9.875,7.029 C7.148,6.896 4.735,5.589 3.114,3.598 C2.831,4.089 2.665,4.637 2.665,5.233 C2.665,6.362 3.25,7.352 4.122,7.922 C3.595,7.908 3.078,7.753 2.64,7.505 C2.64,7.517 2.64,7.531 2.64,7.545 C2.64,9.121 3.777,10.422 5.268,10.729 C5.001,10.8 4.71,10.834 4.408,10.834 C4.198,10.834 3.986,10.819 3.787,10.778 C4.212,12.051 5.418,12.998 6.852,13.025 C5.736,13.902 4.319,14.425 2.785,14.425 C2.516,14.425 2.258,14.412 2,14.377 C3.453,15.31 5.175,15.85 7.032,15.85 C13.068,15.85 16.368,10.892 16.368,6.583 C16.368,6.444 16.363,6.309 16.356,6.175 C17.007,5.711 17.554,5.136 18,4.487 L18,4.538 Z"></path>
    </g>
</svg>
