<?xml version="1.0" encoding="UTF-8"?>
<svg width="20px" height="20px" viewBox="0 0 20 20" version="1.1" xmlns="http://www.w3.org/2000/svg">
    <title>WhatsApp Icon</title>
    <g stroke="none" stroke-width="1" fill="#4CAF50" fill-rule="evenodd">
        <path d="M17.031,2.969 C15.181,1.119 12.724,0 10.08,0 C4.58,0 0.08,4.5 0.08,10 C0.08,11.76 0.531,13.5 1.406,15 L0,20 L5.125,18.594 C6.563,19.375 8.281,19.813 10.031,19.813 C15.531,19.813 20.031,15.313 20.031,9.813 C20,7.219 18.881,4.819 17.031,2.969 Z M10.08,18.125 C8.563,18.125 7.063,17.719 5.781,16.969 L5.5,16.781 L2.375,17.594 L3.188,14.531 L2.969,14.219 C2.156,12.906 1.719,11.406 1.719,9.906 C1.719,5.406 5.469,1.656 9.969,1.656 C12.156,1.656 14.219,2.594 15.781,4.156 C17.344,5.719 18.281,7.781 18.281,9.969 C18.344,14.469 14.594,18.125 10.08,18.125 Z M14.594,12.031 C14.344,11.906 13.125,11.313 12.906,11.219 C12.688,11.125 12.531,11.094 12.375,11.313 C12.219,11.563 11.75,12.094 11.625,12.25 C11.5,12.406 11.344,12.438 11.094,12.281 C10.844,12.156 10.031,11.875 9.063,11 C8.313,10.313 7.781,9.5 7.656,9.25 C7.531,9 7.625,8.875 7.75,8.75 C7.844,8.656 8,8.469 8.094,8.344 C8.188,8.219 8.219,8.125 8.313,7.969 C8.406,7.813 8.375,7.688 8.313,7.563 C8.25,7.438 7.75,6.219 7.563,5.719 C7.375,5.25 7.188,5.281 7.031,5.281 C6.906,5.281 6.75,5.281 6.594,5.281 C6.438,5.281 6.188,5.344 5.969,5.594 C5.75,5.844 5.125,6.438 5.125,7.656 C5.125,8.875 6,10.063 6.125,10.219 C6.25,10.375 7.75,12.719 10.063,13.781 C10.688,14.063 11.188,14.219 11.563,14.344 C12.188,14.531 12.75,14.5 13.188,14.438 C13.688,14.375 14.688,13.844 14.875,13.25 C15.094,12.656 15.094,12.156 15,12.094 C14.906,12.031 14.781,12 14.594,12.031 Z"></path>
    </g>
</svg>
